<mxfile host="app.diagrams.net" agent="Mozilla/5.0 (Windows NT 10.0; Win64; x64) AppleWebKit/537.36 (KHTML, like Gecko) Chrome/131.0.0.0 Safari/537.36 Edg/131.0.0.0" version="25.0.3">
  <diagram name="Page-1" id="axC_30R_eF8DZC_3KO2A">
    <mxGraphModel dx="3320" dy="1890" grid="1" gridSize="10" guides="1" tooltips="1" connect="1" arrows="1" fold="1" page="1" pageScale="1" pageWidth="827" pageHeight="1169" math="0" shadow="0">
      <root>
        <mxCell id="0" />
        <mxCell id="1" parent="0" />
        <mxCell id="bkIjv2eVxkW0g4LzNeB7-1" value="" style="sketch=0;pointerEvents=1;shadow=0;dashed=0;html=1;strokeColor=none;fillColor=#505050;labelPosition=center;verticalLabelPosition=bottom;verticalAlign=top;outlineConnect=0;align=center;shape=mxgraph.office.devices.switch;" parent="1" vertex="1">
          <mxGeometry x="390" y="510" width="105" height="30" as="geometry" />
        </mxCell>
        <mxCell id="bkIjv2eVxkW0g4LzNeB7-3" style="edgeStyle=orthogonalEdgeStyle;rounded=0;orthogonalLoop=1;jettySize=auto;html=1;exitX=1;exitY=1;exitDx=0;exitDy=0;" parent="1" source="bkIjv2eVxkW0g4LzNeB7-2" edge="1">
          <mxGeometry relative="1" as="geometry">
            <mxPoint x="390" y="530" as="targetPoint" />
            <Array as="points">
              <mxPoint x="330" y="520" />
              <mxPoint x="360" y="520" />
              <mxPoint x="360" y="490" />
              <mxPoint x="380" y="490" />
              <mxPoint x="380" y="530" />
              <mxPoint x="390" y="530" />
            </Array>
          </mxGeometry>
        </mxCell>
        <mxCell id="bkIjv2eVxkW0g4LzNeB7-2" value="" style="swimlane;startSize=0;" parent="1" vertex="1">
          <mxGeometry width="330" height="500" as="geometry" />
        </mxCell>
        <mxCell id="bkIjv2eVxkW0g4LzNeB7-8" value="Control Room" style="text;html=1;align=center;verticalAlign=middle;whiteSpace=wrap;rounded=0;" parent="bkIjv2eVxkW0g4LzNeB7-2" vertex="1">
          <mxGeometry x="20" y="10" width="200" height="30" as="geometry" />
        </mxCell>
        <mxCell id="O7sfxcMCWtLLsvEDcofk-1" value="" style="fontColor=#0066CC;verticalAlign=top;verticalLabelPosition=bottom;labelPosition=center;align=center;html=1;outlineConnect=0;fillColor=#CCCCCC;strokeColor=#6881B3;gradientColor=none;gradientDirection=north;strokeWidth=2;shape=mxgraph.networks.pc;" vertex="1" parent="bkIjv2eVxkW0g4LzNeB7-2">
          <mxGeometry x="10" y="15" width="30" height="30" as="geometry" />
        </mxCell>
        <mxCell id="O7sfxcMCWtLLsvEDcofk-2" value="" style="fontColor=#0066CC;verticalAlign=top;verticalLabelPosition=bottom;labelPosition=center;align=center;html=1;outlineConnect=0;fillColor=#CCCCCC;strokeColor=#6881B3;gradientColor=none;gradientDirection=north;strokeWidth=2;shape=mxgraph.networks.pc;" vertex="1" parent="bkIjv2eVxkW0g4LzNeB7-2">
          <mxGeometry x="10" y="60" width="30" height="40" as="geometry" />
        </mxCell>
        <mxCell id="O7sfxcMCWtLLsvEDcofk-3" value="" style="fontColor=#0066CC;verticalAlign=top;verticalLabelPosition=bottom;labelPosition=center;align=center;html=1;outlineConnect=0;fillColor=#CCCCCC;strokeColor=#6881B3;gradientColor=none;gradientDirection=north;strokeWidth=2;shape=mxgraph.networks.pc;" vertex="1" parent="bkIjv2eVxkW0g4LzNeB7-2">
          <mxGeometry x="10" y="115" width="30" height="40" as="geometry" />
        </mxCell>
        <mxCell id="O7sfxcMCWtLLsvEDcofk-4" value="" style="fontColor=#0066CC;verticalAlign=top;verticalLabelPosition=bottom;labelPosition=center;align=center;html=1;outlineConnect=0;fillColor=#CCCCCC;strokeColor=#6881B3;gradientColor=none;gradientDirection=north;strokeWidth=2;shape=mxgraph.networks.pc;" vertex="1" parent="bkIjv2eVxkW0g4LzNeB7-2">
          <mxGeometry x="260" y="10" width="30" height="40" as="geometry" />
        </mxCell>
        <mxCell id="O7sfxcMCWtLLsvEDcofk-5" value="" style="fontColor=#0066CC;verticalAlign=top;verticalLabelPosition=bottom;labelPosition=center;align=center;html=1;outlineConnect=0;fillColor=#CCCCCC;strokeColor=#6881B3;gradientColor=none;gradientDirection=north;strokeWidth=2;shape=mxgraph.networks.pc;" vertex="1" parent="bkIjv2eVxkW0g4LzNeB7-2">
          <mxGeometry x="260" y="70" width="30" height="30" as="geometry" />
        </mxCell>
        <mxCell id="O7sfxcMCWtLLsvEDcofk-6" value="" style="fontColor=#0066CC;verticalAlign=top;verticalLabelPosition=bottom;labelPosition=center;align=center;html=1;outlineConnect=0;fillColor=#CCCCCC;strokeColor=#6881B3;gradientColor=none;gradientDirection=north;strokeWidth=2;shape=mxgraph.networks.pc;" vertex="1" parent="bkIjv2eVxkW0g4LzNeB7-2">
          <mxGeometry x="260" y="115" width="30" height="40" as="geometry" />
        </mxCell>
        <mxCell id="O7sfxcMCWtLLsvEDcofk-7" value="" style="fontColor=#0066CC;verticalAlign=top;verticalLabelPosition=bottom;labelPosition=center;align=center;html=1;outlineConnect=0;fillColor=#CCCCCC;strokeColor=#6881B3;gradientColor=none;gradientDirection=north;strokeWidth=2;shape=mxgraph.networks.pc;" vertex="1" parent="bkIjv2eVxkW0g4LzNeB7-2">
          <mxGeometry x="10" y="175" width="30" height="35" as="geometry" />
        </mxCell>
        <mxCell id="O7sfxcMCWtLLsvEDcofk-8" value="" style="fontColor=#0066CC;verticalAlign=top;verticalLabelPosition=bottom;labelPosition=center;align=center;html=1;outlineConnect=0;fillColor=#CCCCCC;strokeColor=#6881B3;gradientColor=none;gradientDirection=north;strokeWidth=2;shape=mxgraph.networks.monitor;" vertex="1" parent="bkIjv2eVxkW0g4LzNeB7-2">
          <mxGeometry x="125" y="60" width="50" height="40" as="geometry" />
        </mxCell>
        <mxCell id="O7sfxcMCWtLLsvEDcofk-9" value="" style="fontColor=#0066CC;verticalAlign=top;verticalLabelPosition=bottom;labelPosition=center;align=center;html=1;outlineConnect=0;fillColor=#CCCCCC;strokeColor=#6881B3;gradientColor=none;gradientDirection=north;strokeWidth=2;shape=mxgraph.networks.switch;" vertex="1" parent="bkIjv2eVxkW0g4LzNeB7-2">
          <mxGeometry x="125" y="120" width="40" height="10" as="geometry" />
        </mxCell>
        <mxCell id="bkIjv2eVxkW0g4LzNeB7-6" style="edgeStyle=orthogonalEdgeStyle;rounded=0;orthogonalLoop=1;jettySize=auto;html=1;exitX=0;exitY=1;exitDx=0;exitDy=0;" parent="1" source="bkIjv2eVxkW0g4LzNeB7-5" target="bkIjv2eVxkW0g4LzNeB7-1" edge="1">
          <mxGeometry relative="1" as="geometry">
            <Array as="points">
              <mxPoint x="443" y="260" />
            </Array>
          </mxGeometry>
        </mxCell>
        <mxCell id="bkIjv2eVxkW0g4LzNeB7-5" value="" style="swimlane;startSize=0;" parent="1" vertex="1">
          <mxGeometry x="1230" y="20" width="290" height="240" as="geometry" />
        </mxCell>
        <mxCell id="bkIjv2eVxkW0g4LzNeB7-9" value="Rehearsal Space" style="text;html=1;align=center;verticalAlign=middle;whiteSpace=wrap;rounded=0;" parent="bkIjv2eVxkW0g4LzNeB7-5" vertex="1">
          <mxGeometry x="50" y="10" width="160" height="30" as="geometry" />
        </mxCell>
        <mxCell id="bkIjv2eVxkW0g4LzNeB7-11" style="edgeStyle=orthogonalEdgeStyle;rounded=0;orthogonalLoop=1;jettySize=auto;html=1;exitX=0;exitY=0.75;exitDx=0;exitDy=0;" parent="1" source="bkIjv2eVxkW0g4LzNeB7-10" target="bkIjv2eVxkW0g4LzNeB7-1" edge="1">
          <mxGeometry relative="1" as="geometry">
            <Array as="points">
              <mxPoint x="1870" y="320" />
              <mxPoint x="470" y="320" />
            </Array>
          </mxGeometry>
        </mxCell>
        <mxCell id="bkIjv2eVxkW0g4LzNeB7-10" value="" style="swimlane;startSize=0;" parent="1" vertex="1">
          <mxGeometry x="1870" y="120" width="280" height="240" as="geometry" />
        </mxCell>
        <mxCell id="bkIjv2eVxkW0g4LzNeB7-12" value="Meeting Room" style="text;html=1;align=center;verticalAlign=middle;whiteSpace=wrap;rounded=0;" parent="bkIjv2eVxkW0g4LzNeB7-10" vertex="1">
          <mxGeometry x="20" y="10" width="190" height="30" as="geometry" />
        </mxCell>
        <mxCell id="bkIjv2eVxkW0g4LzNeB7-14" style="edgeStyle=orthogonalEdgeStyle;rounded=0;orthogonalLoop=1;jettySize=auto;html=1;exitX=0.5;exitY=0;exitDx=0;exitDy=0;" parent="1" source="bkIjv2eVxkW0g4LzNeB7-13" target="bkIjv2eVxkW0g4LzNeB7-1" edge="1">
          <mxGeometry relative="1" as="geometry">
            <mxPoint x="380" y="540" as="targetPoint" />
            <Array as="points">
              <mxPoint x="205" y="670" />
              <mxPoint x="410" y="670" />
            </Array>
          </mxGeometry>
        </mxCell>
        <mxCell id="bkIjv2eVxkW0g4LzNeB7-13" value="" style="swimlane;startSize=0;" parent="1" vertex="1">
          <mxGeometry x="80" y="870" width="420" height="1080" as="geometry" />
        </mxCell>
        <mxCell id="bkIjv2eVxkW0g4LzNeB7-15" value="Main Auditorium" style="text;html=1;align=center;verticalAlign=middle;whiteSpace=wrap;rounded=0;" parent="bkIjv2eVxkW0g4LzNeB7-13" vertex="1">
          <mxGeometry x="50" y="10" width="220" height="30" as="geometry" />
        </mxCell>
        <mxCell id="bkIjv2eVxkW0g4LzNeB7-18" style="edgeStyle=orthogonalEdgeStyle;rounded=0;orthogonalLoop=1;jettySize=auto;html=1;exitX=-0.002;exitY=0.916;exitDx=0;exitDy=0;exitPerimeter=0;" parent="1" edge="1" target="bkIjv2eVxkW0g4LzNeB7-1" source="bkIjv2eVxkW0g4LzNeB7-16">
          <mxGeometry relative="1" as="geometry">
            <mxPoint x="920" y="760" as="sourcePoint" />
            <mxPoint x="993" y="470" as="targetPoint" />
            <Array as="points">
              <mxPoint x="1019" y="760" />
              <mxPoint x="770" y="760" />
              <mxPoint x="770" y="525" />
            </Array>
          </mxGeometry>
        </mxCell>
        <mxCell id="bkIjv2eVxkW0g4LzNeB7-16" value="" style="swimlane;startSize=0;" parent="1" vertex="1">
          <mxGeometry x="1020" y="500" width="910" height="440" as="geometry" />
        </mxCell>
        <mxCell id="bkIjv2eVxkW0g4LzNeB7-17" value="Box Office" style="text;html=1;align=center;verticalAlign=middle;whiteSpace=wrap;rounded=0;" parent="bkIjv2eVxkW0g4LzNeB7-16" vertex="1">
          <mxGeometry x="20" y="10" width="140" height="30" as="geometry" />
        </mxCell>
        <mxCell id="O7sfxcMCWtLLsvEDcofk-11" value="" style="swimlane;startSize=0;" vertex="1" parent="1">
          <mxGeometry x="750" y="2200" width="1230" height="700" as="geometry" />
        </mxCell>
        <mxCell id="O7sfxcMCWtLLsvEDcofk-12" style="edgeStyle=orthogonalEdgeStyle;rounded=0;orthogonalLoop=1;jettySize=auto;html=1;exitX=0.25;exitY=0;exitDx=0;exitDy=0;" edge="1" parent="1" source="O7sfxcMCWtLLsvEDcofk-11" target="bkIjv2eVxkW0g4LzNeB7-1">
          <mxGeometry relative="1" as="geometry">
            <Array as="points">
              <mxPoint x="990" y="2200" />
              <mxPoint x="990" y="1025" />
              <mxPoint x="560" y="1025" />
              <mxPoint x="560" y="525" />
            </Array>
          </mxGeometry>
        </mxCell>
        <mxCell id="O7sfxcMCWtLLsvEDcofk-14" style="edgeStyle=orthogonalEdgeStyle;rounded=0;orthogonalLoop=1;jettySize=auto;html=1;exitX=0;exitY=0;exitDx=0;exitDy=0;" edge="1" parent="1" source="O7sfxcMCWtLLsvEDcofk-13">
          <mxGeometry relative="1" as="geometry">
            <mxPoint x="470" y="560" as="targetPoint" />
            <Array as="points">
              <mxPoint x="1810" y="990" />
              <mxPoint x="650" y="990" />
              <mxPoint x="650" y="560" />
            </Array>
          </mxGeometry>
        </mxCell>
        <mxCell id="O7sfxcMCWtLLsvEDcofk-13" value="" style="swimlane;startSize=0;" vertex="1" parent="1">
          <mxGeometry x="1810" y="1190" width="650" height="730" as="geometry" />
        </mxCell>
      </root>
    </mxGraphModel>
  </diagram>
</mxfile>
